<mxfile host="app.diagrams.net" modified="2023-11-13T22:57:30.321Z" agent="Mozilla/5.0 (Macintosh; Intel Mac OS X 10_15_7) AppleWebKit/605.1.15 (KHTML, like Gecko) Version/17.0 Safari/605.1.15" etag="D6yY-f32-Bn609wgIhmm" version="22.1.0" type="device">
  <diagram name="Page-1" id="CWKNZZEcmEWWWGnPIOHw">
    <mxGraphModel dx="1810" dy="1250" grid="1" gridSize="10" guides="1" tooltips="1" connect="1" arrows="1" fold="1" page="1" pageScale="1" pageWidth="850" pageHeight="1100" math="0" shadow="0">
      <root>
        <mxCell id="0" />
        <mxCell id="1" parent="0" />
        <mxCell id="PqELKFSMwW4y9moSw1VM-2" value="User" style="html=1;whiteSpace=wrap;fillColor=#dae8fc;strokeColor=#6c8ebf;" vertex="1" parent="1">
          <mxGeometry x="345" y="320" width="110" height="50" as="geometry" />
        </mxCell>
        <mxCell id="PqELKFSMwW4y9moSw1VM-3" value="Post" style="html=1;whiteSpace=wrap;fillColor=#dae8fc;strokeColor=#6c8ebf;" vertex="1" parent="1">
          <mxGeometry x="345" y="460" width="110" height="50" as="geometry" />
        </mxCell>
        <mxCell id="PqELKFSMwW4y9moSw1VM-4" value="Location" style="html=1;whiteSpace=wrap;fillColor=#f8cecc;strokeColor=#b85450;" vertex="1" parent="1">
          <mxGeometry x="195" y="600" width="110" height="50" as="geometry" />
        </mxCell>
        <mxCell id="PqELKFSMwW4y9moSw1VM-5" value="Comment" style="html=1;whiteSpace=wrap;fillColor=#f8cecc;strokeColor=#b85450;" vertex="1" parent="1">
          <mxGeometry x="506" y="600" width="110" height="50" as="geometry" />
        </mxCell>
        <mxCell id="PqELKFSMwW4y9moSw1VM-6" value="Image" style="html=1;whiteSpace=wrap;fillColor=#f8cecc;strokeColor=#b85450;" vertex="1" parent="1">
          <mxGeometry x="686" y="600" width="110" height="50" as="geometry" />
        </mxCell>
        <mxCell id="PqELKFSMwW4y9moSw1VM-7" value="Description" style="html=1;whiteSpace=wrap;fillColor=#f8cecc;strokeColor=#b85450;" vertex="1" parent="1">
          <mxGeometry x="55" y="600" width="110" height="50" as="geometry" />
        </mxCell>
        <mxCell id="PqELKFSMwW4y9moSw1VM-8" value="Date" style="html=1;whiteSpace=wrap;fillColor=#f8cecc;strokeColor=#b85450;" vertex="1" parent="1">
          <mxGeometry x="345" y="730" width="110" height="50" as="geometry" />
        </mxCell>
        <mxCell id="PqELKFSMwW4y9moSw1VM-9" value="Time" style="html=1;whiteSpace=wrap;fillColor=#f8cecc;strokeColor=#b85450;" vertex="1" parent="1">
          <mxGeometry x="485" y="730" width="110" height="50" as="geometry" />
        </mxCell>
        <mxCell id="PqELKFSMwW4y9moSw1VM-10" value="AvailabilityStatus" style="html=1;whiteSpace=wrap;fillColor=#f8cecc;strokeColor=#b85450;" vertex="1" parent="1">
          <mxGeometry x="345" y="600" width="110" height="50" as="geometry" />
        </mxCell>
        <mxCell id="PqELKFSMwW4y9moSw1VM-11" value="1" style="endArrow=open;html=1;endSize=12;startArrow=diamondThin;startSize=14;startFill=1;edgeStyle=orthogonalEdgeStyle;align=left;verticalAlign=bottom;rounded=0;exitX=0.5;exitY=1;exitDx=0;exitDy=0;entryX=0.5;entryY=0;entryDx=0;entryDy=0;" edge="1" parent="1" source="PqELKFSMwW4y9moSw1VM-2" target="PqELKFSMwW4y9moSw1VM-3">
          <mxGeometry x="-1" y="3" relative="1" as="geometry">
            <mxPoint x="365" y="540" as="sourcePoint" />
            <mxPoint x="525" y="540" as="targetPoint" />
            <mxPoint as="offset" />
          </mxGeometry>
        </mxCell>
        <mxCell id="PqELKFSMwW4y9moSw1VM-12" value="0..*" style="edgeLabel;html=1;align=center;verticalAlign=middle;resizable=0;points=[];" vertex="1" connectable="0" parent="PqELKFSMwW4y9moSw1VM-11">
          <mxGeometry x="0.5949" y="-1" relative="1" as="geometry">
            <mxPoint x="1" y="-6" as="offset" />
          </mxGeometry>
        </mxCell>
        <mxCell id="PqELKFSMwW4y9moSw1VM-13" value="1" style="endArrow=open;html=1;endSize=12;startArrow=diamondThin;startSize=14;startFill=1;edgeStyle=orthogonalEdgeStyle;align=left;verticalAlign=bottom;rounded=0;exitX=1;exitY=1;exitDx=0;exitDy=0;entryX=0.5;entryY=0;entryDx=0;entryDy=0;" edge="1" parent="1" source="PqELKFSMwW4y9moSw1VM-3" target="PqELKFSMwW4y9moSw1VM-5">
          <mxGeometry x="-1" y="3" relative="1" as="geometry">
            <mxPoint x="410" y="380" as="sourcePoint" />
            <mxPoint x="410" y="470" as="targetPoint" />
            <mxPoint as="offset" />
          </mxGeometry>
        </mxCell>
        <mxCell id="PqELKFSMwW4y9moSw1VM-14" value="0..*" style="edgeLabel;html=1;align=center;verticalAlign=middle;resizable=0;points=[];" vertex="1" connectable="0" parent="PqELKFSMwW4y9moSw1VM-13">
          <mxGeometry x="0.5949" y="-1" relative="1" as="geometry">
            <mxPoint x="1" y="17" as="offset" />
          </mxGeometry>
        </mxCell>
        <mxCell id="PqELKFSMwW4y9moSw1VM-15" value="" style="endArrow=block;startArrow=block;endFill=1;startFill=1;html=1;rounded=0;exitX=0.25;exitY=1;exitDx=0;exitDy=0;entryX=0.5;entryY=0;entryDx=0;entryDy=0;" edge="1" parent="1" source="PqELKFSMwW4y9moSw1VM-3" target="PqELKFSMwW4y9moSw1VM-4">
          <mxGeometry width="160" relative="1" as="geometry">
            <mxPoint x="335" y="570" as="sourcePoint" />
            <mxPoint x="255" y="590" as="targetPoint" />
            <Array as="points">
              <mxPoint x="373" y="560" />
              <mxPoint x="250" y="560" />
            </Array>
          </mxGeometry>
        </mxCell>
        <mxCell id="PqELKFSMwW4y9moSw1VM-20" value="1" style="edgeLabel;html=1;align=center;verticalAlign=middle;resizable=0;points=[];" vertex="1" connectable="0" parent="PqELKFSMwW4y9moSw1VM-15">
          <mxGeometry x="0.8547" relative="1" as="geometry">
            <mxPoint x="-1" y="-2" as="offset" />
          </mxGeometry>
        </mxCell>
        <mxCell id="PqELKFSMwW4y9moSw1VM-21" value="0..*" style="edgeLabel;html=1;align=center;verticalAlign=middle;resizable=0;points=[];" vertex="1" connectable="0" parent="PqELKFSMwW4y9moSw1VM-15">
          <mxGeometry x="-0.8339" relative="1" as="geometry">
            <mxPoint as="offset" />
          </mxGeometry>
        </mxCell>
        <mxCell id="PqELKFSMwW4y9moSw1VM-17" value="1" style="endArrow=open;html=1;endSize=12;startArrow=diamondThin;startSize=14;startFill=1;edgeStyle=orthogonalEdgeStyle;align=left;verticalAlign=bottom;rounded=0;entryX=0.5;entryY=0;entryDx=0;entryDy=0;" edge="1" parent="1" target="PqELKFSMwW4y9moSw1VM-10">
          <mxGeometry x="-1" y="3" relative="1" as="geometry">
            <mxPoint x="400" y="510" as="sourcePoint" />
            <mxPoint x="410" y="470" as="targetPoint" />
            <mxPoint as="offset" />
          </mxGeometry>
        </mxCell>
        <mxCell id="PqELKFSMwW4y9moSw1VM-18" value="1" style="edgeLabel;html=1;align=center;verticalAlign=middle;resizable=0;points=[];" vertex="1" connectable="0" parent="PqELKFSMwW4y9moSw1VM-17">
          <mxGeometry x="0.5949" y="-1" relative="1" as="geometry">
            <mxPoint y="-5" as="offset" />
          </mxGeometry>
        </mxCell>
        <mxCell id="PqELKFSMwW4y9moSw1VM-22" value="1" style="endArrow=open;html=1;endSize=12;startArrow=diamondThin;startSize=14;startFill=1;edgeStyle=orthogonalEdgeStyle;align=left;verticalAlign=bottom;rounded=0;exitX=0;exitY=0.5;exitDx=0;exitDy=0;entryX=0.5;entryY=0;entryDx=0;entryDy=0;" edge="1" parent="1" source="PqELKFSMwW4y9moSw1VM-3" target="PqELKFSMwW4y9moSw1VM-7">
          <mxGeometry x="-1" y="3" relative="1" as="geometry">
            <mxPoint x="438" y="520" as="sourcePoint" />
            <mxPoint x="550" y="610" as="targetPoint" />
            <mxPoint as="offset" />
          </mxGeometry>
        </mxCell>
        <mxCell id="PqELKFSMwW4y9moSw1VM-23" value="1" style="edgeLabel;html=1;align=center;verticalAlign=middle;resizable=0;points=[];" vertex="1" connectable="0" parent="PqELKFSMwW4y9moSw1VM-22">
          <mxGeometry x="0.5949" y="-1" relative="1" as="geometry">
            <mxPoint y="47" as="offset" />
          </mxGeometry>
        </mxCell>
        <mxCell id="PqELKFSMwW4y9moSw1VM-25" value="" style="endArrow=block;startArrow=block;endFill=1;startFill=1;html=1;rounded=0;exitX=1;exitY=0.5;exitDx=0;exitDy=0;entryX=0;entryY=0.5;entryDx=0;entryDy=0;" edge="1" parent="1" source="PqELKFSMwW4y9moSw1VM-5" target="PqELKFSMwW4y9moSw1VM-6">
          <mxGeometry width="160" relative="1" as="geometry">
            <mxPoint x="345" y="580" as="sourcePoint" />
            <mxPoint x="505" y="580" as="targetPoint" />
          </mxGeometry>
        </mxCell>
        <mxCell id="PqELKFSMwW4y9moSw1VM-26" value="1" style="edgeLabel;html=1;align=center;verticalAlign=middle;resizable=0;points=[];" vertex="1" connectable="0" parent="PqELKFSMwW4y9moSw1VM-25">
          <mxGeometry x="-0.37" y="2" relative="1" as="geometry">
            <mxPoint x="-5" y="2" as="offset" />
          </mxGeometry>
        </mxCell>
        <mxCell id="PqELKFSMwW4y9moSw1VM-27" value="1" style="edgeLabel;html=1;align=center;verticalAlign=middle;resizable=0;points=[];" vertex="1" connectable="0" parent="PqELKFSMwW4y9moSw1VM-25">
          <mxGeometry x="0.4115" y="2" relative="1" as="geometry">
            <mxPoint x="3" y="2" as="offset" />
          </mxGeometry>
        </mxCell>
        <mxCell id="PqELKFSMwW4y9moSw1VM-28" value="" style="endArrow=open;html=1;endSize=12;startArrow=diamondThin;startSize=14;startFill=1;edgeStyle=orthogonalEdgeStyle;align=left;verticalAlign=bottom;rounded=0;exitX=1;exitY=0.5;exitDx=0;exitDy=0;entryX=0.5;entryY=0;entryDx=0;entryDy=0;" edge="1" parent="1" source="PqELKFSMwW4y9moSw1VM-3" target="PqELKFSMwW4y9moSw1VM-6">
          <mxGeometry x="-0.8927" y="-15" relative="1" as="geometry">
            <mxPoint x="410" y="380" as="sourcePoint" />
            <mxPoint x="410" y="470" as="targetPoint" />
            <mxPoint as="offset" />
          </mxGeometry>
        </mxCell>
        <mxCell id="PqELKFSMwW4y9moSw1VM-29" value="0..*" style="edgeLabel;html=1;align=center;verticalAlign=middle;resizable=0;points=[];" vertex="1" connectable="0" parent="PqELKFSMwW4y9moSw1VM-28">
          <mxGeometry x="0.5949" y="-1" relative="1" as="geometry">
            <mxPoint x="1" y="53" as="offset" />
          </mxGeometry>
        </mxCell>
        <mxCell id="PqELKFSMwW4y9moSw1VM-30" value="1" style="edgeLabel;html=1;align=center;verticalAlign=middle;resizable=0;points=[];" vertex="1" connectable="0" parent="PqELKFSMwW4y9moSw1VM-28">
          <mxGeometry x="-0.8747" relative="1" as="geometry">
            <mxPoint x="-2" y="-1" as="offset" />
          </mxGeometry>
        </mxCell>
        <mxCell id="PqELKFSMwW4y9moSw1VM-33" value="1" style="endArrow=open;html=1;endSize=12;startArrow=diamondThin;startSize=14;startFill=1;edgeStyle=orthogonalEdgeStyle;align=left;verticalAlign=bottom;rounded=0;entryX=0.5;entryY=0;entryDx=0;entryDy=0;exitX=0.75;exitY=1;exitDx=0;exitDy=0;" edge="1" parent="1" source="PqELKFSMwW4y9moSw1VM-3" target="PqELKFSMwW4y9moSw1VM-8">
          <mxGeometry x="-1" y="3" relative="1" as="geometry">
            <mxPoint x="410" y="520" as="sourcePoint" />
            <mxPoint x="410" y="610" as="targetPoint" />
            <mxPoint as="offset" />
            <Array as="points">
              <mxPoint x="428" y="580" />
              <mxPoint x="476" y="580" />
              <mxPoint x="476" y="680" />
              <mxPoint x="400" y="680" />
            </Array>
          </mxGeometry>
        </mxCell>
        <mxCell id="PqELKFSMwW4y9moSw1VM-34" value="1" style="edgeLabel;html=1;align=center;verticalAlign=middle;resizable=0;points=[];" vertex="1" connectable="0" parent="PqELKFSMwW4y9moSw1VM-33">
          <mxGeometry x="0.5949" y="-1" relative="1" as="geometry">
            <mxPoint x="-16" y="30" as="offset" />
          </mxGeometry>
        </mxCell>
        <mxCell id="PqELKFSMwW4y9moSw1VM-36" value="1" style="endArrow=open;html=1;endSize=12;startArrow=diamondThin;startSize=14;startFill=1;edgeStyle=orthogonalEdgeStyle;align=left;verticalAlign=bottom;rounded=0;entryX=0.5;entryY=0;entryDx=0;entryDy=0;exitX=0.75;exitY=1;exitDx=0;exitDy=0;" edge="1" parent="1">
          <mxGeometry x="-1" y="3" relative="1" as="geometry">
            <mxPoint x="427.5" y="510" as="sourcePoint" />
            <mxPoint x="540" y="730" as="targetPoint" />
            <mxPoint as="offset" />
            <Array as="points">
              <mxPoint x="427" y="580" />
              <mxPoint x="476" y="580" />
              <mxPoint x="476" y="680" />
              <mxPoint x="540" y="680" />
            </Array>
          </mxGeometry>
        </mxCell>
        <mxCell id="PqELKFSMwW4y9moSw1VM-37" value="1" style="edgeLabel;html=1;align=center;verticalAlign=middle;resizable=0;points=[];" vertex="1" connectable="0" parent="PqELKFSMwW4y9moSw1VM-36">
          <mxGeometry x="0.5949" y="-1" relative="1" as="geometry">
            <mxPoint x="17" y="28" as="offset" />
          </mxGeometry>
        </mxCell>
        <mxCell id="PqELKFSMwW4y9moSw1VM-40" value="1" style="endArrow=open;html=1;endSize=12;startArrow=diamondThin;startSize=14;startFill=1;edgeStyle=orthogonalEdgeStyle;align=left;verticalAlign=bottom;rounded=0;entryX=0.5;entryY=0;entryDx=0;entryDy=0;exitX=0;exitY=0.5;exitDx=0;exitDy=0;" edge="1" parent="1" source="PqELKFSMwW4y9moSw1VM-5" target="PqELKFSMwW4y9moSw1VM-9">
          <mxGeometry x="-1" y="3" relative="1" as="geometry">
            <mxPoint x="437.5" y="520" as="sourcePoint" />
            <mxPoint x="550" y="740" as="targetPoint" />
            <mxPoint as="offset" />
            <Array as="points">
              <mxPoint x="476" y="625" />
              <mxPoint x="476" y="680" />
              <mxPoint x="540" y="680" />
            </Array>
          </mxGeometry>
        </mxCell>
        <mxCell id="PqELKFSMwW4y9moSw1VM-41" value="1" style="edgeLabel;html=1;align=center;verticalAlign=middle;resizable=0;points=[];" vertex="1" connectable="0" parent="PqELKFSMwW4y9moSw1VM-40">
          <mxGeometry x="0.5949" y="-1" relative="1" as="geometry">
            <mxPoint x="17" y="28" as="offset" />
          </mxGeometry>
        </mxCell>
      </root>
    </mxGraphModel>
  </diagram>
</mxfile>
